<mxfile host="app.diagrams.net" modified="2024-05-21T13:11:15.317Z" agent="Mozilla/5.0 (Macintosh; Intel Mac OS X 10_15_7) AppleWebKit/537.36 (KHTML, like Gecko) Chrome/124.0.0.0 Safari/537.36" etag="TqoO0fYKwcfAHBXeg33U" version="24.4.4" type="github" pages="2">
  <diagram name="Page-1" id="nbIzrcEQRw5qBqkbvedD" />
  <diagram id="-xzso9igS5qrG9gVlKKo" name="Page-2">
    <mxGraphModel dx="984" dy="625" grid="1" gridSize="10" guides="1" tooltips="1" connect="1" arrows="1" fold="1" page="1" pageScale="1" pageWidth="827" pageHeight="1169" math="0" shadow="0">
      <root>
        <mxCell id="0" />
        <mxCell id="1" parent="0" />
        <mxCell id="V_UUI50zpp9SSZAXRxrd-1" value="&lt;font style=&quot;font-size: 14px;&quot;&gt;input URL&lt;/font&gt;" style="rounded=0;whiteSpace=wrap;html=1;" vertex="1" parent="1">
          <mxGeometry x="130" y="150" width="120" height="60" as="geometry" />
        </mxCell>
        <mxCell id="V_UUI50zpp9SSZAXRxrd-2" value="&lt;font style=&quot;font-size: 14px;&quot;&gt;URL frontier&lt;/font&gt;" style="rounded=0;whiteSpace=wrap;html=1;" vertex="1" parent="1">
          <mxGeometry x="300" y="150" width="120" height="60" as="geometry" />
        </mxCell>
        <mxCell id="V_UUI50zpp9SSZAXRxrd-3" value="URL&lt;div&gt;Database&lt;/div&gt;" style="shape=cylinder3;whiteSpace=wrap;html=1;boundedLbl=1;backgroundOutline=1;size=15;" vertex="1" parent="1">
          <mxGeometry x="314" y="280" width="76" height="110" as="geometry" />
        </mxCell>
        <mxCell id="V_UUI50zpp9SSZAXRxrd-4" value="" style="rounded=0;whiteSpace=wrap;html=1;" vertex="1" parent="1">
          <mxGeometry x="520" y="150" width="120" height="60" as="geometry" />
        </mxCell>
      </root>
    </mxGraphModel>
  </diagram>
</mxfile>
